<svg id="Group_34" data-name="Group 34" xmlns="http://www.w3.org/2000/svg" viewBox="0 0 123.359 392.576">
  <defs>
    <style>
      .cls-1 {
        fill: #f8cb95;
      }

      .cls-2 {
        fill: #f7c282;
      }

      .cls-3 {
        fill: #f0553f;
      }

      .cls-4 {
        fill: #341909;
      }

      .cls-5 {
        fill: #895837;
      }

      .cls-6 {
        fill: #523b2e;
      }

      .cls-7 {
        fill: #fff;
      }

      .cls-8 {
        fill: none;
        stroke: #c1a38d;
        stroke-linecap: round;
        stroke-miterlimit: 10;
        stroke-width: 1.5px;
        opacity: 0.7;
      }
    </style>
  </defs>
  <g id="Group_28" data-name="Group 28">
    <g id="Group_26" data-name="Group 26">
      <g id="Group_17" data-name="Group 17" transform="translate(0 9.606)">
        <g id="Group_4" data-name="Group 4" transform="translate(31.345 130.943)">
          <g id="Group_2" data-name="Group 2">
            <rect id="Rectangle_9" data-name="Rectangle 9" class="cls-1" width="60.669" height="93.025"/>
          </g>
          <g id="Group_3" data-name="Group 3" transform="translate(0 50.304)">
            <path id="Path_21" data-name="Path 21" class="cls-1" d="M43.493,146.786H41.976A29.778,29.778,0,0,1,12.4,117.21V105.076A29.778,29.778,0,0,1,41.976,75.5h1.517a29.778,29.778,0,0,1,29.576,29.576V117.21A29.778,29.778,0,0,1,43.493,146.786Z" transform="translate(-12.4 -75.5)"/>
          </g>
        </g>
        <g id="Group_5" data-name="Group 5" transform="translate(63.702 219.6)">
          <path id="Path_22" data-name="Path 22" class="cls-1" d="M40.62,251.009A10.681,10.681,0,0,1,30,240.392L25.2,104.9c0-5.814,9.606-10.87,15.42-10.87S53.512,87.2,53.512,93.018L51.237,240.645A10.466,10.466,0,0,1,40.62,251.009Z" transform="translate(-25.2 -90.672)"/>
        </g>
        <g id="Group_6" data-name="Group 6" transform="translate(31.345 219.4)">
          <path id="Path_23" data-name="Path 23" class="cls-1" d="M25.292,251.13a10.681,10.681,0,0,1-10.617-10.617L12.4,92.886c0-5.814,7.078,1.264,12.892,1.264s15.167,5.056,15.167,11.123l-4.8,135.493A10.251,10.251,0,0,1,25.292,251.13Z" transform="translate(-12.4 -90.593)"/>
        </g>
        <g id="Group_9" data-name="Group 9" transform="translate(5.241 122.083)">
          <g id="Group_7" data-name="Group 7" transform="translate(59.712 0)">
            <path id="Path_24" data-name="Path 24" class="cls-1" d="M70.956,194.426h0a7.772,7.772,0,0,1-7.836-8.089c0-.758,1.011-73.561-4.55-100.609C55.284,69.55,34.3,68.033,33.291,68.033a7.972,7.972,0,1,1,.758-15.925c1.517,0,34.126,2.022,39.94,30.334,5.814,28.818,4.8,101.114,4.8,104.148A7.876,7.876,0,0,1,70.956,194.426Z" transform="translate(-25.695 -52.095)"/>
          </g>
          <g id="Group_8" data-name="Group 8">
            <path id="Path_25" data-name="Path 25" class="cls-1" d="M9.977,194.426a7.876,7.876,0,0,1-7.836-7.836c0-3.033-1.011-75.33,4.8-104.148C12.758,54.13,45.62,52.108,46.884,52.108a8.1,8.1,0,0,1,8.342,7.584,7.927,7.927,0,0,1-7.584,8.342c-1.011,0-21.992,1.517-25.279,17.695-5.561,27.048-4.55,99.85-4.55,100.609a7.631,7.631,0,0,1-7.836,8.089Z" transform="translate(-2.073 -52.095)"/>
          </g>
        </g>
        <g id="Group_10" data-name="Group 10" transform="translate(47.018 90.75)">
          <path id="Path_26" data-name="Path 26" class="cls-2" d="M33.262,89.246h0A14.672,14.672,0,0,1,18.6,74.584V54.362A14.672,14.672,0,0,1,33.262,39.7h0A14.672,14.672,0,0,1,47.923,54.362V74.584A14.672,14.672,0,0,1,33.262,89.246Z" transform="translate(-18.6 -39.7)"/>
        </g>
        <g id="Group_13" data-name="Group 13" transform="translate(0 53.085)">
          <g id="Group_11" data-name="Group 11" transform="translate(100.609)">
            <circle id="Ellipse_7" data-name="Ellipse 7" class="cls-2" cx="11.375" cy="11.375" r="11.375"/>
          </g>
          <g id="Group_12" data-name="Group 12">
            <circle id="Ellipse_8" data-name="Ellipse 8" class="cls-2" cx="11.375" cy="11.375" r="11.375"/>
          </g>
        </g>
        <g id="Group_14" data-name="Group 14" transform="translate(11.628)">
          <path id="Path_27" data-name="Path 27" class="cls-1" d="M54.652,118.565h0A50.166,50.166,0,0,1,4.6,68.513V43.235C4.6,15.681,27.1,3.8,54.652,3.8h0C82.205,3.8,104.7,15.681,104.7,43.235V68.513A50.166,50.166,0,0,1,54.652,118.565Z" transform="translate(-4.6 -3.8)"/>
        </g>
        <g id="Group_15" data-name="Group 15" transform="translate(68.505 361.877)">
          <path id="Path_28" data-name="Path 28" class="cls-1" d="M27.1,147.068v20.981H70.579L48.334,147.068S27.1,146.815,27.1,147.068Z" transform="translate(-27.1 -146.955)"/>
        </g>
        <g id="Group_16" data-name="Group 16" transform="translate(11.375 361.877)">
          <path id="Path_29" data-name="Path 29" class="cls-1" d="M47.726,147.068v20.981H4.5l22.245-20.981S47.979,146.815,47.726,147.068Z" transform="translate(-4.5 -146.955)"/>
        </g>
      </g>
      <g id="Group_20" data-name="Group 20" transform="translate(0 62.691)">
        <g id="Group_18" data-name="Group 18" transform="translate(100.609)">
          <circle id="Ellipse_9" data-name="Ellipse 9" class="cls-1" cx="11.375" cy="11.375" r="11.375"/>
        </g>
        <g id="Group_19" data-name="Group 19">
          <circle id="Ellipse_10" data-name="Ellipse 10" class="cls-1" cx="11.375" cy="11.375" r="11.375"/>
        </g>
      </g>
      <g id="Group_21" data-name="Group 21" transform="translate(11.628 9.606)">
        <path id="Path_30" data-name="Path 30" class="cls-1" d="M54.652,118.565h0A50.166,50.166,0,0,1,4.6,68.513V43.235C4.6,15.681,27.1,3.8,54.652,3.8h0C82.205,3.8,104.7,15.681,104.7,43.235V68.513A50.166,50.166,0,0,1,54.652,118.565Z" transform="translate(-4.6 -3.8)"/>
      </g>
      <g id="Group_24" data-name="Group 24" transform="translate(11.123 371.595)">
        <g id="Group_22" data-name="Group 22" transform="translate(57.127)">
          <path id="Path_31" data-name="Path 31" class="cls-3" d="M27,147v20.981H70.986L48.741,147Z" transform="translate(-26.999 -147)"/>
        </g>
        <g id="Group_23" data-name="Group 23">
          <path id="Path_32" data-name="Path 32" class="cls-3" d="M48.385,147v20.981H4.4L26.645,147Z" transform="translate(-4.4 -147)"/>
        </g>
      </g>
      <path id="Path_33" data-name="Path 33" class="cls-3" d="M111.256,82.587C106.2,58.572,82.186,53.011,73.591,52v3.792a14.662,14.662,0,0,1-29.323,0V52C35.673,53.264,11.659,58.572,6.6,82.587c-4.3,20.728-4.8,64.46-4.8,88.222H18.989c0-23.256.506-65.471,4.55-84.683a18.469,18.469,0,0,1,4.3-8.595v77.605H90.022V77.531a16.375,16.375,0,0,1,4.3,8.595c3.792,19.212,4.55,61.427,4.55,84.683h17.189C116.059,147.047,115.3,103.315,111.256,82.587Z" transform="translate(2.75 79.449)"/>
      <g id="Group_25" data-name="Group 25" transform="translate(8.635)">
        <path id="Path_34" data-name="Path 34" class="cls-4" d="M6.156,60.274S11.718,53.2,15.51,39.04,14.246,8.2,14.246,8.2,8.684,9.464,5.651,23.114C.342,46.623,6.156,60.274,6.156,60.274Z" transform="translate(-3.416 12.528)"/>
        <path id="Path_35" data-name="Path 35" class="cls-4" d="M50.705,60.274S45.144,53.2,41.352,39.04,42.616,8.2,42.616,8.2s5.561,1.264,8.595,14.914C56.772,46.623,50.705,60.274,50.705,60.274Z" transform="translate(52.391 12.528)"/>
        <path id="Path_36" data-name="Path 36" class="cls-4" d="M98.193,23s-18.2,18.453-50.81,17.189S6.432,22.5,4.915,15.42,5.673,0,5.673,0,12.751,10.111,42.58,5.814,82.52,3.286,90.609,8.342,98.193,23,98.193,23Z" transform="translate(-1.922)"/>
      </g>
      <path id="Path_37" data-name="Path 37" class="cls-5" d="M39.148,172.027l1.77-50.557h4.3l1.769,50.557H72.769L73.78,94.169V92.4H12.1l1.264,79.627H39.148Z" transform="translate(18.487 141.174)"/>
    </g>
    <g id="Group_27" data-name="Group 27" transform="translate(10.686 61.68)">
      <path id="Path_38" data-name="Path 38" class="cls-4" d="M105.778,24.4s-1.264,0-3.286,8.847.758,25.026-13.145,33.115c-13.9,8.342-24.773,6.825-27.554,6.067-2.781-1.011-2.781-6.572-2.781-6.572h-6.32s0,5.561-2.781,6.572S36.262,74.7,22.359,66.362C7.95,58.273,10.731,42.095,8.708,33.247S5.422,24.4,5.422,24.4-.9,55.745,15.533,77.232c12.386,16.178,39.94,15.42,39.94,15.42h0c2.528,0,28.059,0,39.94-15.42C112.1,55.745,105.778,24.4,105.778,24.4Z" transform="translate(-4.227 -24.4)"/>
      <path id="Path_39" data-name="Path 39" class="cls-4" d="M66.527,66.6s-1.264-12.639-3.033-20.476c-.758-3.792-3.033-8.848-8.342-11.123-4.3-1.77-12.134-.758-15.167-.253-2.528-.506-9.859-1.517-14.409.253-5.309,2.275-7.584,7.584-8.342,11.123C15.464,53.712,14.2,66.6,14.2,66.6l9.859-6.067S23.3,48.4,28.862,44.611c5.308-3.539,17.695-3.286,22.751,0,5.814,3.539,4.8,15.925,4.8,15.925Z" transform="translate(11.009 -9.727)"/>
    </g>
  </g>
  <g id="Group_33" data-name="Group 33" transform="translate(26.542 55.107)">
    <g id="Group_32" data-name="Group 32">
      <g id="Group_31" data-name="Group 31" transform="translate(2.022 10.364)">
        <g id="Group_29" data-name="Group 29">
          <path id="Path_40" data-name="Path 40" class="cls-6" d="M17.367,42.584h0A6.151,6.151,0,0,1,11.3,36.517v-4.55A6.151,6.151,0,0,1,17.367,25.9h0a6.151,6.151,0,0,1,6.067,6.067v4.55A6.151,6.151,0,0,1,17.367,42.584Z" transform="translate(-11.3 -25.9)"/>
          <circle id="Ellipse_11" data-name="Ellipse 11" class="cls-7" cx="2.022" cy="2.022" r="2.022" transform="translate(2.275 3.539)"/>
        </g>
        <g id="Group_30" data-name="Group 30" transform="translate(50.557)">
          <path id="Path_41" data-name="Path 41" class="cls-6" d="M37.367,42.584h0A6.151,6.151,0,0,1,31.3,36.517v-4.55A6.151,6.151,0,0,1,37.367,25.9h0a6.151,6.151,0,0,1,6.067,6.067v4.55A6.151,6.151,0,0,1,37.367,42.584Z" transform="translate(-31.3 -25.9)"/>
          <circle id="Ellipse_12" data-name="Ellipse 12" class="cls-7" cx="2.022" cy="2.022" r="2.022" transform="translate(2.275 3.539)"/>
        </g>
      </g>
      <rect id="Rectangle_10" data-name="Rectangle 10" class="cls-4" width="15.926" height="4.55"/>
      <rect id="Rectangle_11" data-name="Rectangle 11" class="cls-4" width="15.926" height="4.55" transform="translate(50.557)"/>
    </g>
    <line id="Line_2" data-name="Line 2" class="cls-8" x2="19.97" transform="translate(24.267 45.249)"/>
  </g>
</svg>
