<svg xmlns="http://www.w3.org/2000/svg" viewBox="0 0 503.506 552.289"><defs><style>.a{fill:#fff;opacity:0.05;}.b,.c{stroke:none;}.c{fill:#707070;}</style></defs><g class="a" transform="translate(-15.634 -10.232)"><path class="b" d="M 259.5 562.0208129882813 C 242.4384155273438 562.0208129882813 226.2837677001953 560.8135986328125 211.4847717285156 558.4328002929688 C 198.0376281738281 556.2694702148438 185.4076385498047 553.0890502929688 173.9456329345703 548.979736328125 C 154.656494140625 542.0643920898438 138.2767791748047 532.4249877929688 125.2614135742188 520.3292846679688 C 120.1517028808594 515.5806274414063 115.5547027587891 510.437255859375 111.5980606079102 505.0421142578125 C 108.4340591430664 500.7278137207031 105.6703491210938 496.2440490722656 103.3836288452148 491.7152709960938 C 99.49727630615234 484.0185546875 98.3302001953125 478.8147583007813 98.31884765625 478.7631225585938 L 98.2861328125 478.61376953125 L 98.17534637451172 478.5082702636719 C 98.12527465820313 478.4604797363281 93.07906341552734 473.6429748535156 85.62098693847656 465.6563415527344 C 78.73891448974609 458.2864685058594 68.33741760253906 446.6341857910156 57.86684417724609 432.9748229980469 C 46.10456085205078 417.6304016113281 36.65441513061523 402.9328918457031 29.77877426147461 389.29052734375 C 25.70084571838379 381.1992492675781 22.49577331542969 373.3953247070313 20.25255966186523 366.0955505371094 C 17.78906059265137 358.0787658691406 16.42570304870605 350.4739074707031 16.20048904418945 343.4921875 C 15.96120262145996 336.0741882324219 16.35734558105469 329.9844055175781 17.41141700744629 324.8750305175781 C 18.3804874420166 320.1778259277344 19.91927337646484 316.2810363769531 22.1158447265625 312.9619750976563 C 24.03134536743164 310.0675354003906 26.46877479553223 307.5528869628906 29.78656005859375 305.04833984375 C 32.80084609985352 302.7728881835938 36.29277420043945 300.6966247558594 39.98977279663086 298.4984130859375 C 53.70320129394531 290.3445434570313 72.48434448242188 279.1773986816406 90.67169952392578 243.3538970947266 C 108.4664154052734 208.3036193847656 119.4057769775391 171.5764007568359 129.0572814941406 139.172607421875 C 134.5363464355469 120.7773971557617 139.7115631103516 103.4023284912109 145.6360626220703 87.81340026855469 C 148.8011322021484 79.48503875732422 151.9316253662109 72.31232452392578 155.2064208984375 65.88539886474609 C 158.8426361083984 58.7492561340332 162.5927734375 52.64690017700195 166.6712799072266 47.22954177856445 C 170.9051971435547 41.60582733154297 174.8074951171875 36.943115234375 178.6010589599609 32.97504425048828 C 183.0790557861328 28.29104232788086 187.4616241455078 24.49782752990723 191.9992065429688 21.37861442565918 C 202.4214172363281 14.21425628662109 213.609130859375 10.73154258728027 226.2017059326172 10.73154258728027 C 233.5244140625 10.73154258728027 241.4820556640625 11.94432830810547 249.8534851074219 14.336256980896 C 258.7201232910156 16.86961364746094 268.3887634277344 20.82097053527832 278.5907592773438 26.08040046691895 C 286.4843444824219 30.14975738525391 293.2705688476563 34.43090057373047 299.3371276855469 39.16854095458984 C 304.7781982421875 43.41768646240234 309.5426330566406 47.96475601196289 313.9026184082031 53.06961441040039 C 322.0514221191406 62.61040115356445 327.5199279785156 72.62604522705078 333.3094787597656 83.22968292236328 C 338.3014221191406 92.37239837646484 343.4632873535156 101.8264007568359 350.7053527832031 111.6086120605469 C 358.9086303710938 122.6891860961914 368.659912109375 132.5744781494141 380.5164794921875 141.8292541503906 C 405.9609069824219 161.6903228759766 426.6088562011719 163.1814727783203 444.8261413574219 164.4971160888672 C 450.555419921875 164.9108276367188 455.9669799804688 165.3016815185547 461.25634765625 166.2326202392578 C 467.1808471679688 167.2754058837891 472.0801391601563 168.8446197509766 476.6746215820313 171.1710357666016 C 482.0387878417969 173.8871917724609 486.9287109375 177.6378326416016 491.6239318847656 182.6373291015625 C 496.8322143554688 188.1831817626953 501.7384033203125 195.1822509765625 506.6227722167969 204.0343933105469 C 510.9476318359375 211.8724670410156 514.145751953125 220.4315490722656 516.1284790039063 229.4739685058594 C 517.93212890625 237.6996154785156 518.7711181640625 246.5106811523438 518.6222534179688 255.6626129150391 C 518.371337890625 271.0921936035156 515.3442993164063 287.7626953125 509.6251220703125 305.2110290527344 C 507.3767700195313 312.0704040527344 504.7018432617188 319.0677490234375 501.6747131347656 326.0086975097656 C 499.2524108886719 331.5628356933594 496.6004028320313 337.0934143066406 493.7923583984375 342.4468383789063 C 489.0102844238281 351.5637512207031 485.3863525390625 357.0757446289063 485.3502807617188 357.1304016113281 L 485.21533203125 357.3347473144531 L 485.2941284179688 357.5666809082031 C 485.29833984375 357.5793151855469 485.7679138183594 359.0328979492188 485.6116943359375 361.9441223144531 C 485.4671325683594 364.6380310058594 484.7422790527344 369.1634826660156 482.1095581054688 375.4240417480469 C 479.1458435058594 382.4718933105469 474.4206237792969 390.2308349609375 468.0651245117188 398.4854125976563 C 460.1177062988281 408.8076782226563 449.5859069824219 419.9356994628906 436.7623596191406 431.5604858398438 C 421.2198486328125 445.6499633789063 406.9490661621094 462.0577697753906 393.1481323242188 477.9253234863281 C 384.0841979980469 488.3465576171875 374.7117004394531 499.1225280761719 365.1676940917969 509.0057678222656 C 360.0355529785156 514.3202514648438 355.2540588378906 518.9715576171875 350.5501403808594 523.2254028320313 C 345.2767028808594 527.9942016601563 340.2314758300781 532.1483764648438 335.1261291503906 535.925537109375 C 323.7140502929688 544.3685302734375 312.4507141113281 550.5626831054688 300.6925659179688 554.8621215820313 C 294.3302001953125 557.1884765625 287.7356262207031 558.9679565429688 281.0919189453125 560.1511840820313 C 274.1259765625 561.3917846679688 266.8614196777344 562.0208129882813 259.5 562.0208129882813 Z"/><path class="c" d="M 226.2016906738281 11.2315673828125 C 213.713623046875 11.2315673828125 202.6184997558594 14.68548583984375 192.2824096679688 21.79058837890625 C 187.7734985351563 24.89019775390625 183.4164123535156 28.66168212890625 178.96240234375 33.32061767578125 C 175.1825561523438 37.27435302734375 171.2926940917969 41.92242431640625 167.0707702636719 47.53024291992188 C 163.0099182128906 52.9241943359375 159.2747802734375 59.00241088867188 155.6519165039063 66.11239624023438 C 152.3854064941406 72.52310180664063 149.2620544433594 79.6796875 146.1033325195313 87.99102783203125 C 140.1854858398438 103.5628356933594 135.0127868652344 120.9293212890625 129.5364074707031 139.3154602050781 C 119.8788452148438 171.7395324707031 108.9326171875 208.48974609375 91.11749267578125 243.5802612304688 C 72.86456298828125 279.5330505371094 54.01126098632813 290.7430419921875 40.24530029296875 298.9281921386719 C 36.56048583984375 301.1191101074219 33.08001708984375 303.1885986328125 30.0877685546875 305.4473876953125 C 26.816650390625 307.916748046875 24.416015625 310.3922729492188 22.53271484375 313.2379150390625 C 20.37200927734375 316.5028076171875 18.85699462890625 320.3424072265625 17.90106201171875 324.9760437011719 C 16.85498046875 330.0464782714844 16.46221923828125 336.0978393554688 16.7001953125 343.4761352539063 C 16.92388916015625 350.4125366210938 18.279541015625 357.9723205566406 20.7294921875 365.9454040527344 C 22.96392822265625 373.2174072265625 26.15765380859375 380.9939575195313 30.22198486328125 389.0590209960938 C 37.0821533203125 402.6720581054688 46.51385498046875 417.34130859375 58.25506591796875 432.6594848632813 C 68.71255493164063 446.3028259277344 79.10235595703125 457.9426879882813 85.97683715820313 465.3048095703125 C 93.42819213867188 473.2848205566406 98.47012329101563 478.0985412597656 98.52020263671875 478.1461791992188 L 98.74127197265625 478.3573303222656 L 98.80706787109375 478.6553344726563 C 98.8184814453125 478.7071228027344 99.99542236328125 483.9236145019531 103.8863525390625 491.6015319824219 C 106.1705017089844 496.1088256835938 108.9294128417969 500.5706176757813 112.0866394042969 504.8627624511719 C 116.0326232910156 510.2273864746094 120.6158447265625 515.3412475585938 125.7087707519531 520.0623168945313 C 138.6806945800781 532.0870971679688 155.0017700195313 541.6705322265625 174.2186279296875 548.54638671875 C 185.6424865722656 552.6339721679688 198.2301330566406 555.7978515625 211.6320495605469 557.9500122070313 C 226.3858337402344 560.3194580078125 242.4909973144531 561.5208129882813 259.5 561.5208129882813 C 266.8320617675781 561.5208129882813 274.067138671875 560.8944091796875 281.0042724609375 559.6588745117188 C 287.6194152832031 558.4808349609375 294.1856994628906 556.7089233398438 300.5208435058594 554.3924560546875 C 312.2333984375 550.1097412109375 323.4556274414063 543.9376831054688 334.8287048339844 535.5235595703125 C 339.9207763671875 531.75634765625 344.9535522460938 527.6122436523438 350.2147216796875 522.8545532226563 C 354.9102172851563 518.6083984375 359.6837158203125 513.9647827148438 364.8079223632813 508.6584777832031 C 374.3429870605469 498.7846069335938 383.7111206054688 488.0136108398438 392.770751953125 477.5972595214844 C 406.5812683105469 461.7186889648438 420.8619995117188 445.2994689941406 436.4264831542969 431.1900329589844 C 449.1705627441406 419.6373291015625 459.6462097167969 408.5778198242188 467.5624084472656 398.318603515625 C 473.8906860351563 390.1173095703125 478.6045532226563 382.4095458984375 481.5730590820313 375.4093322753906 C 484.2059326171875 369.2005615234375 484.9469909667969 364.7157592773438 485.1051330566406 362.0468139648438 C 485.2717895507813 359.2324523925781 484.8423767089844 357.7979125976563 484.8193969726563 357.7238159179688 L 484.6584167480469 357.2709655761719 L 484.9329833984375 356.85498046875 C 484.968994140625 356.8004150390625 488.5869750976563 351.2964782714844 493.3606262207031 342.1935424804688 C 496.1630554199219 336.8494873046875 498.8096313476563 331.3288269042969 501.2268371582031 325.784912109375 C 504.2467651367188 318.8586120605469 506.9149780273438 311.87646484375 509.1575012207031 305.032470703125 C 514.8577880859375 287.6351013183594 517.8740844726563 271.0174560546875 518.12255859375 255.6412658691406 C 518.2698364257813 246.5303955078125 517.4341430664063 237.7603149414063 515.6386108398438 229.574462890625 C 513.6661987304688 220.5816040039063 510.4854736328125 212.0698852539063 506.1849975585938 204.2759704589844 C 501.321044921875 195.4607543945313 496.4388427734375 188.4946899414063 491.2593994140625 182.9796142578125 C 486.6047668457031 178.0232543945313 481.7601318359375 174.3065490722656 476.4486999511719 171.6171264648438 C 471.8994140625 169.3135375976563 467.0443420410156 167.7591247558594 461.1696166992188 166.7250366210938 C 455.9054870605469 165.7985534667969 450.5062866210938 165.4085998535156 444.7900695800781 164.9957580566406 C 426.5016479492188 163.675048828125 405.7730712890625 162.1780395507813 380.2087707519531 142.223388671875 C 368.3161315917969 132.9403991699219 358.5339965820313 123.0235290527344 350.3034057617188 111.9061279296875 C 343.0409240722656 102.0962524414063 337.8706359863281 92.62689208984375 332.8706359863281 83.46932983398438 C 327.0938415527344 72.88909912109375 321.6374816894531 62.89569091796875 313.5224914550781 53.39431762695313 C 309.1844177246094 48.31524658203125 304.4436950683594 43.79083251953125 299.0293579101563 39.5626220703125 C 292.9876403808594 34.84442138671875 286.2272033691406 30.5797119140625 278.3616943359375 26.52484130859375 C 268.1889038085938 21.28045654296875 258.5511169433594 17.34130859375 249.7161254882813 14.81695556640625 C 241.3893432617188 12.43780517578125 233.4779968261719 11.2315673828125 226.2016906738281 11.2315673828125 M 226.2016906738281 10.23150634765625 C 240.5774230957031 10.23150634765625 257.7242736816406 14.76055908203125 278.8199157714844 25.635986328125 C 340.0369873046875 57.19503784179688 323.763916015625 96.89590454101563 380.8240661621094 141.4351196289063 C 437.8842163085938 185.9743347167969 470.5840454101563 137.6851196289063 507.060546875 203.7928161621094 C 543.5369873046875 269.9005432128906 485.767578125 357.4058227539063 485.767578125 357.4058227539063 C 485.767578125 357.4058227539063 493.6650695800781 380.6521911621094 437.09814453125 431.930908203125 C 380.5312805175781 483.2096252441406 343.1979370117188 562.5208129882813 259.5 562.5208129882813 C 116.18212890625 562.5208129882813 97.83041381835938 478.8702392578125 97.83041381835938 478.8702392578125 C 97.83041381835938 478.8702392578125 17.6019287109375 402.4439697265625 15.70068359375 343.5083312988281 C 13.799560546875 284.5726013183594 52.58306884765625 317.2723999023438 90.22586059570313 243.1275329589844 C 127.8685607910156 168.9826965332031 134.10498046875 89.65481567382813 166.2718505859375 46.9288330078125 C 181.5572204589844 26.6258544921875 198.86083984375 10.23150634765625 226.2016906738281 10.23150634765625 Z"/></g></svg>